# xmcd CD database file
#
# Track frame offsets:
#	150
#	18897
#	43895
#	64687
#
# Disc length: 1175 seconds
#
# Revision: 0
# Processed by: cddbd v1.5.1PL0 Copyright (c) Steve Scherf et al.
# Submitted via: CDex 1.51
#
DISCID=2c049504
DTITLE=区麗情 - 区麗情/ジェイド・リング-翡翠の指輪
DYEAR=1996
DGENRE=Vocal
TTITLE0=初めて恋をした日(リミックス・ヴァージョン)
TTITLE1=彼はあなたじゃない
TTITLE2=翡翠の指輪
TTITLE3=フライ・ナウ-ザ・ウィンター・イズ・オーヴァー(イングリッシュ・ヴァージョン)
EXTD=YEAR: 1996
EXTT0=
EXTT1=
EXTT2=
EXTT3=
PLAYORDER=
